# xmcd
# 
# Track frame offsets:
#     150
#     29968
#     44699
#     58012
#     82912
#     96505
#     128173
#     153823
#     172798
#     199310
# 
# Disc length: 2861
# 
# Revision: 0
# Processed by: cddbd v1.5.2PL0 Copyright (c) Steve Scherf et al.
# Submitted via: fre:ac v1.0.27
# 
DISCID=860b2b0a
DTITLE=J.J. Cale - One Way Ticket [CD3)
DYEAR=2017
DGENRE=Blues
TTITLE0=Ride Me High
TTITLE1=Humdinger
TTITLE2=Artificial Paradise
TTITLE3=Riverboat Song
TTITLE4=Downtown L.A.
TTITLE5=Got My Mojo Workin'
TTITLE6=Crazy Mama
TTITLE7=Cocaine
TTITLE8=After Midnight
TTITLE9=Magnolia
EXTD=
EXTT0=
EXTT1=
EXTT2=
EXTT3=
EXTT4=
EXTT5=
EXTT6=
EXTT7=
EXTT8=
EXTT9=
PLAYORDER=
